<svg xmlns="http://www.w3.org/2000/svg" xmlns:xlink="http://www.w3.org/1999/xlink" width="40" zoomAndPan="magnify" viewBox="0 0 30 30.000001" height="40" preserveAspectRatio="xMidYMid meet" version="1.0"><defs><clipPath id="dedeee3122"><path d="M 0.484375 0 L 29.515625 0 L 29.515625 29.03125 L 0.484375 29.03125 Z M 0.484375 0 " clip-rule="nonzero"/></clipPath><clipPath id="d77e420a25"><path d="M 5 16 L 25 16 L 25 29.03125 L 5 29.03125 Z M 5 16 " clip-rule="nonzero"/></clipPath></defs><g clip-path="url(#dedeee3122)"><path fill="#ffffff" d="M 29.515625 14.515625 C 29.515625 15.46875 29.421875 16.414062 29.238281 17.347656 C 29.050781 18.285156 28.777344 19.191406 28.410156 20.070312 C 28.046875 20.953125 27.601562 21.789062 27.070312 22.582031 C 26.539062 23.375 25.9375 24.105469 25.265625 24.78125 C 24.589844 25.453125 23.859375 26.058594 23.066406 26.585938 C 22.273438 27.117188 21.4375 27.5625 20.554688 27.929688 C 19.675781 28.292969 18.765625 28.566406 17.832031 28.753906 C 16.898438 28.941406 15.953125 29.03125 15 29.03125 C 14.046875 29.03125 13.101562 28.941406 12.167969 28.753906 C 11.234375 28.566406 10.324219 28.292969 9.445312 27.929688 C 8.566406 27.5625 7.726562 27.117188 6.933594 26.585938 C 6.144531 26.058594 5.410156 25.453125 4.734375 24.78125 C 4.0625 24.105469 3.460938 23.375 2.929688 22.582031 C 2.402344 21.789062 1.953125 20.953125 1.589844 20.070312 C 1.222656 19.191406 0.949219 18.285156 0.761719 17.347656 C 0.578125 16.414062 0.484375 15.46875 0.484375 14.515625 C 0.484375 13.5625 0.578125 12.621094 0.761719 11.683594 C 0.949219 10.75 1.222656 9.84375 1.589844 8.960938 C 1.953125 8.082031 2.402344 7.242188 2.929688 6.453125 C 3.460938 5.660156 4.0625 4.925781 4.734375 4.25 C 5.410156 3.578125 6.144531 2.976562 6.933594 2.445312 C 7.726562 1.917969 8.566406 1.46875 9.445312 1.105469 C 10.324219 0.742188 11.234375 0.464844 12.167969 0.277344 C 13.101562 0.09375 14.046875 0 15 0 C 15.953125 0 16.898438 0.09375 17.832031 0.277344 C 18.765625 0.464844 19.675781 0.742188 20.554688 1.105469 C 21.4375 1.46875 22.273438 1.917969 23.066406 2.445312 C 23.859375 2.976562 24.589844 3.578125 25.265625 4.25 C 25.9375 4.925781 26.539062 5.660156 27.070312 6.453125 C 27.601562 7.242188 28.046875 8.082031 28.410156 8.960938 C 28.777344 9.84375 29.050781 10.75 29.238281 11.683594 C 29.421875 12.621094 29.515625 13.5625 29.515625 14.515625 Z M 29.515625 14.515625 " fill-opacity="1" fill-rule="nonzero"/></g><path fill="#fddec2" d="M 14.855469 15.433594 C 14.171875 15.417969 10.519531 15.050781 10.261719 11.382812 C 10.007812 7.71875 10.871094 4.558594 12.476562 4.578125 C 14.085938 4.601562 14.953125 4.304688 14.953125 5.050781 C 14.953125 4.304688 15.820312 4.601562 17.425781 4.578125 C 19.03125 4.558594 19.699219 7.71875 19.445312 11.382812 C 19.191406 15.050781 15.539062 15.453125 14.855469 15.433594 Z M 14.855469 15.433594 " fill-opacity="1" fill-rule="evenodd"/><path fill="#954744" d="M 15.152344 3.179688 C 13.574219 1.492188 12.371094 3.308594 11.4375 4.277344 C 10.503906 5.246094 9.585938 6.71875 8.007812 7.382812 C 6.429688 8.046875 7.820312 9.429688 7.804688 10.640625 C 7.792969 11.847656 7.804688 12.179688 6.625 13.253906 C 5.441406 14.328125 6.308594 15.8125 6.730469 16.191406 C 6.730469 16.191406 6.226562 14.582031 6.808594 14.148438 C 6.808594 14.148438 6.085938 17.863281 10.261719 18.664062 C 10.261719 18.664062 9.769531 18.191406 9.847656 17.5625 C 9.847656 17.5625 10.503906 18.664062 12.378906 18.863281 C 12.378906 18.863281 13.441406 17.261719 13.167969 14.992188 C 13.167969 14.992188 11.097656 13.519531 11.15625 11.945312 C 11.15625 11.945312 10.730469 12.011719 10.480469 11.710938 C 10.480469 11.710938 11.71875 11.757812 12.222656 9.824219 C 12.726562 7.894531 13.019531 5.105469 15.058594 5.542969 C 17.09375 5.984375 16.828125 5.109375 17.527344 7.261719 C 18.230469 9.417969 19.089844 8.195312 19.253906 10.386719 C 19.417969 12.578125 17.59375 14.621094 16.9375 14.949219 C 16.9375 14.949219 16.308594 17.882812 17.804688 18.578125 C 19.300781 19.269531 20.140625 19.527344 20.722656 19.472656 C 21.308594 19.417969 22.894531 18.195312 22.804688 17.136719 C 22.714844 16.078125 21.691406 15.273438 22.804688 13.941406 C 23.917969 12.609375 23.953125 11.492188 23.023438 10.414062 C 22.09375 9.335938 23.351562 9.703125 23.242188 8.003906 C 23.132812 6.308594 21.378906 6.554688 19.867188 4.894531 C 18.355469 3.238281 16.929688 1.097656 15.152344 3.179688 Z M 15.152344 3.179688 " fill-opacity="1" fill-rule="evenodd"/><path fill="#fddec2" d="M 15.023438 19.261719 L 15.054688 19.265625 L 15.089844 19.261719 Z M 15.023438 19.261719 " fill-opacity="1" fill-rule="evenodd"/><path fill="#fddec2" d="M 13.019531 14.457031 L 12.816406 16.433594 C 13.457031 17.054688 14.707031 17.132812 15.070312 17.140625 C 15.425781 17.132812 16.648438 17.058594 17.296875 16.460938 L 17.09375 14.457031 L 15.054688 14.714844 Z M 13.019531 14.457031 " fill-opacity="1" fill-rule="evenodd"/><g clip-path="url(#d77e420a25)"><path fill="#ed7a71" d="M 12.367188 17.011719 C 9.472656 18.304688 7.421875 19.128906 6.328125 21.214844 C 5.996094 21.84375 5.519531 23.558594 5.132812 25.160156 C 7.6875 27.53125 11.097656 28.992188 14.847656 29.03125 C 14.945312 29.03125 15 29.03125 15 29.03125 C 15 29.03125 15.054688 29.03125 15.152344 29.03125 C 18.902344 28.992188 22.3125 27.53125 24.867188 25.160156 C 24.484375 23.558594 24.003906 21.84375 23.671875 21.214844 C 22.578125 19.128906 20.527344 18.304688 17.632812 17.011719 L 15 16.832031 Z M 12.367188 17.011719 " fill-opacity="1" fill-rule="evenodd"/></g><path fill="#d74947" d="M 15.070312 15.996094 C 14.707031 15.988281 13.4375 15.914062 12.800781 15.277344 C 12.800781 15.277344 12.535156 15.226562 12.503906 15.546875 C 12.472656 15.863281 12.441406 17.160156 12.441406 17.160156 C 12.441406 17.160156 12.832031 18.078125 15 18.117188 C 15.023438 18.117188 15.046875 18.117188 15.070312 18.117188 C 15.09375 18.117188 15.117188 18.117188 15.140625 18.117188 C 17.308594 18.078125 17.703125 17.160156 17.703125 17.160156 C 17.703125 17.160156 17.667969 15.863281 17.636719 15.546875 C 17.605469 15.226562 17.339844 15.277344 17.339844 15.277344 C 16.703125 15.914062 15.433594 15.988281 15.070312 15.996094 Z M 15.070312 15.996094 " fill-opacity="1" fill-rule="evenodd"/><path fill="#954744" d="M 14.945312 10.5 C 14.910156 10.441406 14.929688 10.367188 14.988281 10.332031 C 15.046875 10.296875 15.125 10.316406 15.15625 10.375 C 15.3125 10.644531 15.523438 10.78125 15.6875 10.886719 C 15.898438 11.023438 16.046875 11.117188 15.980469 11.347656 L 15.980469 11.355469 C 15.925781 11.527344 15.808594 11.667969 15.664062 11.75 C 15.515625 11.835938 15.339844 11.863281 15.167969 11.816406 L 15.160156 11.816406 C 15.097656 11.796875 15.058594 11.726562 15.078125 11.664062 C 15.097656 11.597656 15.164062 11.558594 15.230469 11.578125 C 15.230469 11.578125 15.230469 11.578125 15.234375 11.582031 C 15.339844 11.609375 15.449219 11.589844 15.542969 11.539062 C 15.636719 11.484375 15.710938 11.394531 15.742188 11.285156 C 15.746094 11.28125 15.742188 11.285156 15.746094 11.28125 C 15.761719 11.222656 15.675781 11.171875 15.554688 11.09375 C 15.371094 10.976562 15.128906 10.820312 14.945312 10.5 Z M 14.945312 10.5 " fill-opacity="1" fill-rule="nonzero"/><path fill="#954744" d="M 15.847656 12.53125 C 15.902344 12.496094 15.980469 12.511719 16.015625 12.570312 C 16.050781 12.628906 16.035156 12.703125 15.976562 12.738281 C 15.96875 12.746094 15.957031 12.75 15.949219 12.757812 C 15.792969 12.839844 15.445312 12.90625 15.074219 12.84375 C 14.703125 12.785156 14.300781 12.597656 14.039062 12.179688 C 14.015625 12.144531 13.996094 12.113281 13.980469 12.078125 C 13.949219 12.019531 13.96875 11.945312 14.03125 11.914062 C 14.089844 11.878906 14.164062 11.902344 14.195312 11.964844 C 14.210938 11.992188 14.226562 12.023438 14.246094 12.046875 C 14.464844 12.398438 14.800781 12.550781 15.113281 12.601562 C 15.425781 12.65625 15.710938 12.605469 15.832031 12.539062 C 15.839844 12.535156 15.84375 12.535156 15.847656 12.53125 Z M 15.847656 12.53125 " fill-opacity="1" fill-rule="nonzero"/><path fill="#954744" d="M 17.167969 9.945312 C 17.167969 10.121094 17.125 10.277344 17.039062 10.402344 C 16.953125 10.527344 16.851562 10.59375 16.730469 10.59375 C 16.613281 10.59375 16.507812 10.527344 16.425781 10.402344 C 16.339844 10.277344 16.296875 10.121094 16.296875 9.945312 C 16.296875 9.765625 16.339844 9.613281 16.425781 9.484375 C 16.507812 9.359375 16.613281 9.296875 16.730469 9.296875 C 16.851562 9.296875 16.953125 9.359375 17.039062 9.484375 C 17.125 9.613281 17.167969 9.765625 17.167969 9.945312 Z M 17.167969 9.945312 " fill-opacity="1" fill-rule="nonzero"/><path fill="#954744" d="M 17.488281 9.011719 C 17.535156 9.058594 17.535156 9.136719 17.484375 9.183594 C 17.4375 9.230469 17.359375 9.230469 17.3125 9.183594 C 17.15625 9.027344 16.976562 8.933594 16.792969 8.910156 C 16.617188 8.886719 16.4375 8.933594 16.269531 9.050781 C 16.214844 9.089844 16.140625 9.074219 16.101562 9.019531 C 16.0625 8.964844 16.074219 8.886719 16.128906 8.847656 C 16.347656 8.695312 16.589844 8.636719 16.824219 8.667969 C 17.0625 8.695312 17.292969 8.8125 17.488281 9.011719 Z M 17.488281 9.011719 " fill-opacity="1" fill-rule="nonzero"/><path fill="#954744" d="M 14.035156 9.945312 C 14.035156 10.121094 13.992188 10.277344 13.90625 10.402344 C 13.824219 10.527344 13.71875 10.59375 13.601562 10.59375 C 13.480469 10.59375 13.378906 10.527344 13.292969 10.402344 C 13.207031 10.277344 13.164062 10.121094 13.164062 9.945312 C 13.164062 9.765625 13.207031 9.613281 13.292969 9.484375 C 13.378906 9.359375 13.480469 9.296875 13.601562 9.296875 C 13.71875 9.296875 13.824219 9.359375 13.90625 9.484375 C 13.992188 9.613281 14.035156 9.765625 14.035156 9.945312 Z M 14.035156 9.945312 " fill-opacity="1" fill-rule="nonzero"/><path fill="#954744" d="M 13.019531 9.183594 C 12.972656 9.230469 12.894531 9.230469 12.847656 9.183594 C 12.796875 9.136719 12.796875 9.058594 12.84375 9.011719 C 13.039062 8.8125 13.269531 8.695312 13.507812 8.667969 C 13.742188 8.636719 13.984375 8.695312 14.203125 8.847656 C 14.257812 8.886719 14.269531 8.964844 14.230469 9.019531 C 14.191406 9.074219 14.117188 9.089844 14.0625 9.050781 C 13.894531 8.933594 13.714844 8.886719 13.539062 8.910156 C 13.355469 8.933594 13.175781 9.027344 13.019531 9.183594 Z M 13.019531 9.183594 " fill-opacity="1" fill-rule="nonzero"/><path fill="#ed7a71" d="M 17.578125 11.121094 C 17.480469 11.140625 17.402344 11.183594 17.34375 11.242188 C 17.28125 11.304688 17.261719 11.367188 17.273438 11.433594 C 17.285156 11.496094 17.332031 11.546875 17.410156 11.578125 C 17.492188 11.609375 17.578125 11.617188 17.675781 11.59375 C 17.773438 11.574219 17.851562 11.535156 17.914062 11.472656 C 17.972656 11.414062 17.996094 11.351562 17.980469 11.285156 C 17.96875 11.21875 17.921875 11.171875 17.84375 11.136719 C 17.765625 11.105469 17.675781 11.101562 17.578125 11.121094 Z M 17.578125 11.121094 " fill-opacity="1" fill-rule="nonzero"/><path fill="#ed7a71" d="M 12.816406 11.121094 C 12.914062 11.140625 12.992188 11.183594 13.050781 11.242188 C 13.109375 11.304688 13.132812 11.367188 13.121094 11.433594 C 13.105469 11.496094 13.058594 11.546875 12.980469 11.578125 C 12.902344 11.609375 12.8125 11.617188 12.714844 11.59375 C 12.617188 11.574219 12.539062 11.535156 12.480469 11.472656 C 12.421875 11.414062 12.398438 11.351562 12.410156 11.285156 C 12.425781 11.21875 12.472656 11.171875 12.550781 11.140625 C 12.628906 11.105469 12.71875 11.101562 12.816406 11.121094 Z M 12.816406 11.121094 " fill-opacity="1" fill-rule="nonzero"/></svg>