<svg xmlns="http://www.w3.org/2000/svg" xmlns:xlink="http://www.w3.org/1999/xlink" width="40" zoomAndPan="magnify" viewBox="0 0 30 30.000001" height="40" preserveAspectRatio="xMidYMid meet" version="1.0"><defs><clipPath id="ed10f4f069"><path d="M 0.484375 0 L 29.515625 0 L 29.515625 29.03125 L 0.484375 29.03125 Z M 0.484375 0 " clip-rule="nonzero"/></clipPath><clipPath id="4cbbecb4f4"><path d="M 10 15 L 23 15 L 23 29.03125 L 10 29.03125 Z M 10 15 " clip-rule="nonzero"/></clipPath></defs><g clip-path="url(#ed10f4f069)"><path fill="#ffffff" d="M 0.484375 14.515625 C 0.484375 15.46875 0.578125 16.414062 0.761719 17.347656 C 0.949219 18.285156 1.222656 19.191406 1.589844 20.070312 C 1.953125 20.953125 2.398438 21.789062 2.929688 22.582031 C 3.460938 23.375 4.0625 24.105469 4.734375 24.78125 C 5.410156 25.453125 6.140625 26.058594 6.933594 26.585938 C 7.726562 27.117188 8.5625 27.5625 9.445312 27.929688 C 10.324219 28.292969 11.234375 28.566406 12.167969 28.753906 C 13.101562 28.941406 14.046875 29.03125 15 29.03125 C 15.953125 29.03125 16.898438 28.941406 17.832031 28.753906 C 18.765625 28.566406 19.675781 28.292969 20.554688 27.929688 C 21.433594 27.5625 22.273438 27.117188 23.066406 26.585938 C 23.855469 26.058594 24.589844 25.453125 25.265625 24.78125 C 25.9375 24.105469 26.539062 23.375 27.070312 22.582031 C 27.597656 21.789062 28.046875 20.953125 28.410156 20.070312 C 28.777344 19.191406 29.050781 18.285156 29.238281 17.347656 C 29.421875 16.414062 29.515625 15.46875 29.515625 14.515625 C 29.515625 13.5625 29.421875 12.621094 29.238281 11.683594 C 29.050781 10.75 28.777344 9.84375 28.410156 8.960938 C 28.046875 8.082031 27.597656 7.242188 27.070312 6.453125 C 26.539062 5.660156 25.9375 4.925781 25.265625 4.25 C 24.589844 3.578125 23.855469 2.976562 23.066406 2.445312 C 22.273438 1.917969 21.433594 1.46875 20.554688 1.105469 C 19.675781 0.742188 18.765625 0.464844 17.832031 0.277344 C 16.898438 0.09375 15.953125 0 15 0 C 14.046875 0 13.101562 0.09375 12.167969 0.277344 C 11.234375 0.464844 10.324219 0.742188 9.445312 1.105469 C 8.5625 1.46875 7.726562 1.917969 6.933594 2.445312 C 6.140625 2.976562 5.410156 3.578125 4.734375 4.25 C 4.0625 4.925781 3.460938 5.660156 2.929688 6.453125 C 2.398438 7.242188 1.953125 8.082031 1.589844 8.960938 C 1.222656 9.84375 0.949219 10.75 0.761719 11.683594 C 0.578125 12.621094 0.484375 13.5625 0.484375 14.515625 Z M 0.484375 14.515625 " fill-opacity="1" fill-rule="nonzero"/></g><path fill="#fddec2" d="M 16.457031 14.4375 L 16.617188 16.421875 L 17.097656 20.199219 L 12.957031 19.664062 L 11.359375 15.855469 L 11.132812 11.980469 Z M 16.457031 14.4375 " fill-opacity="1" fill-rule="evenodd"/><path fill="#954744" d="M 18.289062 7.394531 C 17.128906 5.136719 15.625 3.78125 14 4.542969 C 12.210938 5.382812 11.183594 7.335938 11.175781 8.335938 C 11.171875 9.339844 12.265625 13.648438 12.265625 13.648438 C 12.265625 13.648438 11.800781 14.320312 9.976562 12.328125 C 8.152344 10.335938 5.691406 4.828125 9.671875 4.777344 C 9.671875 4.777344 10.6875 1.214844 15.183594 1.671875 C 19.242188 2.085938 20.628906 4.394531 19.371094 7.105469 C 19.09375 7.703125 18.71875 8.226562 18.289062 7.394531 Z M 18.289062 7.394531 " fill-opacity="1" fill-rule="evenodd"/><path fill="#fddec2" d="M 18.546875 7.757812 C 18.550781 8.304688 18.539062 8.578125 18.667969 9.265625 C 18.796875 9.953125 18.9375 10.875 18.421875 12.257812 C 17.90625 13.640625 15.78125 14.871094 14.800781 14.46875 C 13.820312 14.066406 13.15625 13.816406 12.148438 13.175781 C 11.867188 12.027344 11.171875 9.132812 11.175781 8.335938 C 11.183594 7.335938 12.210938 5.382812 14 4.542969 C 15.757812 3.71875 17.351562 5.128906 18.546875 7.757812 Z M 18.546875 7.757812 " fill-opacity="1" fill-rule="evenodd"/><path fill="#954744" d="M 11.117188 8.148438 C 11.917969 10.808594 13.160156 12.09375 14.785156 11.914062 C 16.40625 11.734375 18.558594 11.121094 18.65625 11.417969 C 18.75 11.71875 20.335938 15.421875 16.011719 15.679688 C 11.6875 15.933594 11.328125 13.605469 11.117188 8.148438 Z M 11.117188 8.148438 " fill-opacity="1" fill-rule="evenodd"/><path fill="#fddec2" d="M 11.144531 9.519531 C 10.449219 8.964844 9.574219 9.292969 9.792969 10.152344 C 10.015625 11.007812 10.84375 12.003906 11.335938 11.945312 C 11.359375 11.941406 11.382812 11.933594 11.398438 11.917969 C 11.300781 11.265625 11.238281 10.519531 11.1875 9.6875 C 11.160156 9.582031 11.144531 9.519531 11.144531 9.519531 Z M 11.144531 9.519531 " fill-opacity="1" fill-rule="evenodd"/><path fill="#fddec2" d="M 17.835938 11.828125 C 16.472656 12.300781 15.574219 11.996094 15.371094 12.070312 C 15.164062 12.140625 15.832031 13.234375 16.910156 13.230469 C 17.984375 13.226562 17.835938 11.828125 17.835938 11.828125 Z M 17.835938 11.828125 " fill-opacity="1" fill-rule="evenodd"/><path fill="#954744" d="M 18.164062 7.988281 C 18.242188 8.054688 18.355469 8.042969 18.421875 7.964844 C 18.488281 7.886719 18.476562 7.769531 18.398438 7.707031 C 18.339844 7.65625 18.277344 7.609375 18.210938 7.566406 C 17.890625 7.34375 17.589844 7.269531 17.34375 7.273438 C 17.074219 7.277344 16.867188 7.382812 16.761719 7.503906 C 16.753906 7.515625 16.746094 7.527344 16.734375 7.542969 C 16.675781 7.625 16.699219 7.738281 16.785156 7.796875 C 16.867188 7.855469 16.980469 7.832031 17.039062 7.746094 C 17.039062 7.746094 17.039062 7.746094 17.042969 7.742188 C 17.089844 7.6875 17.195312 7.644531 17.347656 7.640625 C 17.527344 7.636719 17.753906 7.695312 18.007812 7.867188 C 18.054688 7.902344 18.109375 7.941406 18.164062 7.988281 Z M 18.164062 7.988281 " fill-opacity="1" fill-rule="nonzero"/><path fill="#954744" d="M 15.890625 8 C 15.976562 8.058594 16.089844 8.035156 16.148438 7.949219 C 16.203125 7.863281 16.179688 7.75 16.09375 7.695312 C 16.070312 7.675781 16.039062 7.660156 16.007812 7.640625 C 15.660156 7.441406 15.265625 7.414062 14.933594 7.472656 C 14.589844 7.53125 14.300781 7.695312 14.183594 7.867188 C 14.179688 7.871094 14.175781 7.878906 14.167969 7.894531 C 14.117188 7.984375 14.148438 8.09375 14.238281 8.144531 C 14.324219 8.195312 14.4375 8.164062 14.488281 8.074219 C 14.488281 8.074219 14.488281 8.078125 14.492188 8.070312 C 14.554688 7.972656 14.75 7.878906 14.996094 7.835938 C 15.253906 7.789062 15.5625 7.808594 15.828125 7.960938 C 15.847656 7.972656 15.871094 7.988281 15.890625 8 Z M 15.890625 8 " fill-opacity="1" fill-rule="nonzero"/><path fill="#954744" d="M 17.28125 9.394531 C 17.296875 9.550781 17.34375 9.679688 17.425781 9.78125 C 17.507812 9.886719 17.597656 9.933594 17.695312 9.921875 C 17.796875 9.914062 17.875 9.851562 17.9375 9.734375 C 17.996094 9.617188 18.019531 9.480469 18.003906 9.328125 C 17.988281 9.171875 17.941406 9.042969 17.859375 8.941406 C 17.78125 8.835938 17.6875 8.789062 17.589844 8.800781 C 17.488281 8.808594 17.410156 8.871094 17.347656 8.988281 C 17.289062 9.105469 17.265625 9.242188 17.28125 9.394531 Z M 17.28125 9.394531 " fill-opacity="1" fill-rule="nonzero"/><path fill="#954744" d="M 14.917969 9.609375 C 14.933594 9.765625 14.980469 9.894531 15.0625 9.996094 C 15.144531 10.097656 15.234375 10.144531 15.332031 10.136719 C 15.433594 10.125 15.511719 10.0625 15.574219 9.949219 C 15.632812 9.832031 15.65625 9.695312 15.640625 9.539062 C 15.628906 9.386719 15.578125 9.257812 15.5 9.152344 C 15.417969 9.050781 15.328125 9.003906 15.226562 9.011719 C 15.128906 9.023438 15.046875 9.085938 14.988281 9.203125 C 14.925781 9.316406 14.902344 9.453125 14.917969 9.609375 Z M 14.917969 9.609375 " fill-opacity="1" fill-rule="nonzero"/><g clip-path="url(#4cbbecb4f4)"><path fill="#456685" d="M 16.617188 16.421875 C 16.761719 18.289062 16.542969 19.230469 15.75 19.199219 C 14.957031 19.164062 11.859375 17.078125 11.359375 15.855469 L 10.511719 28.324219 C 11.925781 28.785156 13.433594 29.03125 15 29.03125 C 17.691406 29.03125 20.214844 28.296875 22.375 27.019531 C 21.664062 24.515625 20.25 19.710938 19.679688 18.964844 C 18.902344 17.945312 16.617188 16.421875 16.617188 16.421875 Z M 16.617188 16.421875 " fill-opacity="1" fill-rule="evenodd"/></g><path fill="#2f456c" d="M 16.617188 16.421875 C 20.230469 20 20.472656 24.371094 20.78125 27.835938 C 22.285156 27.179688 23.65625 26.277344 24.847656 25.179688 C 24.382812 23.183594 23.792969 20.855469 23.46875 20.320312 C 22.871094 19.339844 22.421875 19.148438 20.945312 18.714844 C 19.46875 18.285156 19.625 18.214844 19.273438 17.667969 C 18.921875 17.117188 17.371094 16.382812 16.617188 16.421875 Z M 16.617188 16.421875 " fill-opacity="1" fill-rule="evenodd"/><path fill="#2f456c" d="M 11.359375 15.855469 C 11.359375 15.855469 12.074219 23.679688 13.140625 28.914062 C 8.710938 28.347656 4.910156 25.785156 2.65625 22.160156 C 2.710938 21.902344 2.769531 21.71875 2.828125 21.640625 C 3.320312 20.972656 7.25 19.4375 7.808594 18.738281 C 8.367188 18.035156 9.605469 16.753906 11.359375 15.855469 Z M 11.359375 15.855469 " fill-opacity="1" fill-rule="evenodd"/></svg>